<svg xmlns="http://www.w3.org/2000/svg" width="20" height="19.99" viewBox="0 0 20 19.99">
  <g id="Icon_ionic-ios-link" data-name="Icon ionic-ios-link" transform="translate(-3.375 -3.375)">
    <path id="パス_2062" data-name="パス 2062" d="M14.523,20.511l-.058,0a.8.8,0,0,0-.461.216l-3.1,3.1a3.5,3.5,0,0,1-4.95-4.95l3.3-3.3a3.479,3.479,0,0,1,.548-.447,3.532,3.532,0,0,1,.711-.36,3.365,3.365,0,0,1,.721-.178,3.407,3.407,0,0,1,.49-.034c.067,0,.135,0,.221.01a3.49,3.49,0,0,1,2.249,1.009,3.446,3.446,0,0,1,.822,1.312.756.756,0,0,0,.927.485s.01,0,.014,0,.01,0,.01,0a.751.751,0,0,0,.5-.918,4.355,4.355,0,0,0-1.182-1.97,5.059,5.059,0,0,0-2.768-1.408c-.091-.014-.183-.029-.274-.038a4.959,4.959,0,0,0-.533-.029c-.125,0-.25,0-.37.014a4.847,4.847,0,0,0-.778.12c-.053.01-.1.024-.154.038a5,5,0,0,0-.937.351,4.936,4.936,0,0,0-1.331.956l-3.3,3.3a5.069,5.069,0,0,0-1.466,3.58A5.053,5.053,0,0,0,12,24.942L15.134,21.8A.761.761,0,0,0,14.523,20.511Z" transform="translate(0 -3.052)" fill="#002c4b"/>
    <path id="パス_2063" data-name="パス 2063" d="M25.085,4.85a5.064,5.064,0,0,0-7.146,0L14.879,7.911a.773.773,0,0,0,.485,1.317.781.781,0,0,0,.61-.221L19.04,5.951a3.5,3.5,0,0,1,4.95,4.95l-3.3,3.3a3.479,3.479,0,0,1-.548.447,3.532,3.532,0,0,1-.711.36,3.365,3.365,0,0,1-.721.178,3.407,3.407,0,0,1-.49.034c-.067,0-.139,0-.221-.01a3.453,3.453,0,0,1-3.037-2.235.768.768,0,0,0-.918-.471.776.776,0,0,0-.543.985,4.389,4.389,0,0,0,1.139,1.8h0l.01.01a5.059,5.059,0,0,0,3.042,1.446,4.959,4.959,0,0,0,.533.029q.187,0,.375-.014a5.494,5.494,0,0,0,.927-.154,5,5,0,0,0,.937-.351A4.936,4.936,0,0,0,21.8,15.3l3.3-3.3a5.058,5.058,0,0,0-.01-7.15Z" transform="translate(-3.195)" fill="#002c4b"/>
  </g>
</svg>
