<svg id="グループ_725" data-name="グループ 725" xmlns="http://www.w3.org/2000/svg" xmlns:xlink="http://www.w3.org/1999/xlink" width="20" height="20" viewBox="0 0 20 20">
  <defs>
    <clipPath id="clip-path">
      <rect id="長方形_195" data-name="長方形 195" width="20" height="20" fill="none"/>
    </clipPath>
  </defs>
  <g id="グループ_724" data-name="グループ 724" clip-path="url(#clip-path)">
    <path id="パス_2052" data-name="パス 2052" d="M20.32,10.16A10.16,10.16,0,1,0,7.706,20.021V13.265h-2.1v-3.1h2.1V8.822c0-3.458,1.565-5.061,4.96-5.061a11.2,11.2,0,0,1,2.209.252V6.828c-.24-.025-.656-.038-1.174-.038-1.666,0-2.31.631-2.31,2.272v1.1H14.71l-.57,3.1H11.391v6.981A10.161,10.161,0,0,0,20.32,10.16" fill="#0866ff"/>
    <path id="パス_2053" data-name="パス 2053" d="M146.583,102.052l.57-3.1h-3.319v-1.1c0-1.641.644-2.272,2.31-2.272.518,0,.934.013,1.174.038V92.8a11.2,11.2,0,0,0-2.209-.252c-3.4,0-4.96,1.6-4.96,5.061v1.338h-2.1v3.1h2.1v6.756a10.217,10.217,0,0,0,3.685.225v-6.981Z" transform="translate(-132.443 -88.787)" fill="#fff"/>
  </g>
</svg>
