<svg id="グループ_727" data-name="グループ 727" xmlns="http://www.w3.org/2000/svg" xmlns:xlink="http://www.w3.org/1999/xlink" width="20" height="20" viewBox="0 0 20 20">
  <defs>
    <clipPath id="clip-path">
      <rect id="長方形_196" data-name="長方形 196" width="20" height="20" fill="none"/>
    </clipPath>
  </defs>
  <g id="グループ_726" data-name="グループ 726" clip-path="url(#clip-path)">
    <path id="パス_2054" data-name="パス 2054" d="M15.491,20H4.509A4.509,4.509,0,0,1,0,15.491V4.509A4.509,4.509,0,0,1,4.509,0H15.491A4.509,4.509,0,0,1,20,4.509V15.491A4.509,4.509,0,0,1,15.491,20" fill="#06c755"/>
    <path id="パス_2055" data-name="パス 2055" d="M66.615,63.757c0-2.984-2.991-5.411-6.668-5.411s-6.668,2.427-6.668,5.411c0,2.675,2.372,4.915,5.577,5.339.217.047.513.143.587.329a1.369,1.369,0,0,1,.022.6s-.078.471-.1.571c-.029.169-.134.659.578.359a21.53,21.53,0,0,0,5.239-3.871h0a4.815,4.815,0,0,0,1.429-3.329" transform="translate(-49.949 -54.699)" fill="#fff"/>
    <path id="パス_2056" data-name="パス 2056" d="M201.153,125.021h-1.873a.127.127,0,0,1-.127-.127v0h0v-2.9h0v0a.127.127,0,0,1,.127-.127h1.873a.128.128,0,0,1,.127.127v.473a.127.127,0,0,1-.127.127H199.88v.491h1.273a.128.128,0,0,1,.127.127v.473a.127.127,0,0,1-.127.127H199.88v.491h1.273a.128.128,0,0,1,.127.127v.473a.127.127,0,0,1-.127.127" transform="translate(-186.705 -114.24)" fill="#06c755"/>
    <path id="パス_2057" data-name="パス 2057" d="M90.279,125.021a.127.127,0,0,0,.127-.127v-.473a.128.128,0,0,0-.127-.127H89.006v-2.31a.128.128,0,0,0-.127-.127h-.473a.127.127,0,0,0-.127.127v2.908h0v0a.127.127,0,0,0,.127.127h1.873Z" transform="translate(-82.761 -114.24)" fill="#06c755"/>
    <path id="パス_2058" data-name="パス 2058" d="M129.33,121.855h-.473a.127.127,0,0,0-.127.127v2.91a.127.127,0,0,0,.127.127h.473a.127.127,0,0,0,.127-.127v-2.91a.127.127,0,0,0-.127-.127" transform="translate(-120.684 -114.239)" fill="#06c755"/>
    <path id="パス_2059" data-name="パス 2059" d="M150.283,121.855h-.473a.127.127,0,0,0-.127.127v1.728l-1.331-1.8-.01-.013h0l-.008-.008,0,0-.007-.006,0,0-.007,0,0,0-.007,0,0,0-.007,0,0,0-.008,0h0l-.008,0h-.494a.127.127,0,0,0-.127.127v2.91a.127.127,0,0,0,.127.127h.473a.127.127,0,0,0,.127-.127v-1.728l1.333,1.8a.129.129,0,0,0,.033.032h0l.008,0,0,0,.006,0,.006,0,0,0,.009,0h0a.13.13,0,0,0,.033,0h.47a.127.127,0,0,0,.127-.127v-2.91a.127.127,0,0,0-.127-.127" transform="translate(-138.418 -114.239)" fill="#06c755"/>
  </g>
</svg>
