<svg id="グループ_251" data-name="グループ 251" xmlns="http://www.w3.org/2000/svg" xmlns:xlink="http://www.w3.org/1999/xlink" width="165.572" height="128.093" viewBox="0 0 165.572 128.093">
  <defs>
    <clipPath id="clip-path">
      <rect id="長方形_125" data-name="長方形 125" width="165.572" height="128.093" fill="none"/>
    </clipPath>
  </defs>
  <g id="グループ_250" data-name="グループ 250" transform="translate(0 0)" clip-path="url(#clip-path)">
    <path id="パス_2028" data-name="パス 2028" d="M208.282,931.762a5.718,5.718,0,0,1-1.183-3.9l-.049-21.2.1-.247h-4.339V929.4a5.789,5.789,0,0,0,1.923,4.684,9.344,9.344,0,0,0,6.509,2.367h.838l4.586-3.057a13.84,13.84,0,0,1-3.9.493,5.547,5.547,0,0,1-4.487-2.12" transform="translate(-180.867 -808.353)" fill="#fff"/>
    <path id="パス_2029" data-name="パス 2029" d="M353.519,906.419h-4.487l.148.247v20.808s-2.613,4.487-2.81,4.783l2.81-1.923v5.424h4.339l-.148-.246V906.666Z" transform="translate(-308.897 -808.354)" fill="#fff"/>
    <path id="パス_2030" data-name="パス 2030" d="M534.371,906.419h-4.734l-10.453,27.859L508.83,906.419H503.6l.148.2v28.943l-.148.2h2.071l-.148-.2V909.771l9.615,25.985h5.325l9.516-25.147v24.949l-.148.2h4.536l-.148-.2V906.616Z" transform="translate(-449.119 -808.354)" fill="#fff"/>
    <path id="パス_2031" data-name="パス 2031" d="M886.462,906.419h-4.586l.148.2v28.943l-.148.2h4.586l-.148-.2V906.616Z" transform="translate(-786.467 -808.354)" fill="#fff"/>
    <path id="パス_2032" data-name="パス 2032" d="M1040.7,906.419h-2.071l.148.2v27.563l-15.63-27.76h-5.917l.148.2v28.943l-.148.2h2.071l-.148-.2V908.046l15.63,27.711h5.917l-.148-.2V906.616Z" transform="translate(-907.177 -808.354)" fill="#fff"/>
    <path id="パス_2033" data-name="パス 2033" d="M1305.473,935.757h4.635l-11.143-29.338h-5.621l.246.444-10.206,28.894h1.824l3.945-11.094h8.481l2.367-1.578h-10.256L1295.07,908Z" transform="translate(-1144.536 -808.354)" fill="#fff"/>
    <path id="パス_2034" data-name="パス 2034" d="M88.07,523.1v8.032l.148.2H83.635l.148-.2V502.212l-.148-.2h4.583l-.148.2V519.7l10.79-17.293-.247-.4h2.463L94.13,513.05l10.2,18.28H99.452l-7.636-14.338Z" transform="translate(-74.587 -447.701)" fill="#fff"/>
    <path id="パス_2035" data-name="パス 2035" d="M335.336,503.59l-5.32,15.076h10.248l-2.365,1.577h-8.475l-3.942,11.087h-1.823l10.2-28.873-.247-.443h5.616l11.135,29.316h-4.632Z" transform="translate(-288.643 -447.701)" fill="#fff"/>
    <path id="パス_2036" data-name="パス 2036" d="M657.405,531.133l.148.2H653.02l.148-.2V506.2l-9.508,25.128h-5.322l-9.608-25.964v25.768l.148.2h-2.07l.148-.2V502.212l-.148-.2h5.223l10.346,27.838,10.445-27.838h4.73l-.148.2Z" transform="translate(-558.996 -447.701)" fill="#fff"/>
    <path id="パス_2037" data-name="パス 2037" d="M990.029,502.013h4.337l-.1.247.05,21.186a5.707,5.707,0,0,0,1.183,3.891,5.534,5.534,0,0,0,4.483,2.12,13.812,13.812,0,0,0,3.891-.493l-4.582,3.055h-.838a9.339,9.339,0,0,1-6.5-2.365,5.786,5.786,0,0,1-1.922-4.682Zm22.516.247v28.823l.148.247h-4.337v-5.42l-2.808,1.922c.2-.295,2.808-4.78,2.808-4.78V502.26l-.146-.247h4.483Z" transform="translate(-882.919 -447.701)" fill="#fff"/>
    <path id="パス_2038" data-name="パス 2038" d="M1262.476,531.133l.146.2h-4.533l.148-.2V516.057l-9.115-14.043h4.632l7.538,11.578,7-11.183-.247-.4h2.463l-8.03,12.812Z" transform="translate(-1113.982 -447.701)" fill="#fff"/>
    <path id="パス_2039" data-name="パス 2039" d="M699.372,67.438l-4.444,6.844-7.216-11.888H686.34l7.573,13.718v12.8h2.052V76.228l4.758-8.79Z" transform="translate(-612.085 -55.643)" fill="#fff"/>
    <path id="パス_2040" data-name="パス 2040" d="M654.516,336.554c-2.227-.21-3.518-.778-4.4-3.3a.138.138,0,0,0-.226-.055,9.041,9.041,0,0,1-6.219,2.684c-.353,0-.641-.023-.832-.039-.109-.009-.188-.015-.246-.015a.2.2,0,0,0-.191.085h0a.147.147,0,0,0,0,.132,3.793,3.793,0,0,0,2.409.593,10.368,10.368,0,0,0,4.921-1.427l.1.113a4,4,0,0,0,3.287,1.669,6.767,6.767,0,0,0,1.415-.165.138.138,0,0,0-.016-.273" transform="translate(-572.887 -297.116)" fill="#fff"/>
    <path id="パス_2041" data-name="パス 2041" d="M786.649,335.912h0a.2.2,0,0,0-.191-.084c-.057,0-.136.006-.246.015-.191.015-.479.039-.832.039a9.041,9.041,0,0,1-6.219-2.684.138.138,0,0,0-.095-.038.132.132,0,0,0-.033,0,.138.138,0,0,0-.1.089c-.88,2.523-2.171,3.091-4.4,3.3a.138.138,0,0,0-.016.273,6.76,6.76,0,0,0,1.415.165,4,4,0,0,0,3.287-1.669l.1-.113a10.369,10.369,0,0,0,4.921,1.427,3.794,3.794,0,0,0,2.409-.593.147.147,0,0,0,0-.132" transform="translate(-690.63 -297.116)" fill="#fff"/>
    <path id="パス_2042" data-name="パス 2042" d="M744.306,3.479h0a.1.1,0,0,0-.008-.039c-.047-.131-.319-.242-.683-.408a5.975,5.975,0,0,1-.657-.343,3.833,3.833,0,0,1-.333-.237,2.619,2.619,0,0,1-.3-.288,2.443,2.443,0,0,1-.407-.7,7.513,7.513,0,0,1-.23-.721C741.569.3,741.448,0,741.3,0c-.073,0-.142.074-.206.207a3.444,3.444,0,0,0-.182.546,7.184,7.184,0,0,1-.223.722,2.4,2.4,0,0,1-.406.695,2.66,2.66,0,0,1-.3.292,3.531,3.531,0,0,1-.33.238,5.578,5.578,0,0,1-.654.339c-.371.165-.649.276-.689.411a.1.1,0,0,0-.006.032h0a.1.1,0,0,0,.006.032c.04.134.318.246.689.411a5.578,5.578,0,0,1,.654.339,3.531,3.531,0,0,1,.33.238,2.66,2.66,0,0,1,.3.292,2.4,2.4,0,0,1,.406.695,7.184,7.184,0,0,1,.223.722,3.444,3.444,0,0,0,.182.546c.064.133.133.207.206.207.149,0,.27-.3.392-.749a7.513,7.513,0,0,1,.23-.721,2.442,2.442,0,0,1,.407-.7,2.619,2.619,0,0,1,.3-.288,3.81,3.81,0,0,1,.333-.237,5.975,5.975,0,0,1,.657-.343c.364-.165.636-.276.683-.408a.1.1,0,0,0,.008-.039h0" transform="translate(-658.429 0.002)" fill="#fff"/>
    <path id="パス_2043" data-name="パス 2043" d="M612.532,97.369,611.068,94.9a5.991,5.991,0,0,0-5.014,6.981,6.179,6.179,0,0,0,7.771,4.606,6.948,6.948,0,0,0,4.715-6.764c0-2.455-1.42-5.006-3.1-7.367-5.551-7.814-4.067-9.287-3.87-9.782l-.775-1.258c-2.072,2.708-.023,6.385,2.1,9.637,2.319,3.56,3.649,5.568,3.9,7.717a4.979,4.979,0,0,1-3.5,5.5,3.5,3.5,0,1,1-.763-6.8" transform="translate(-540.402 -72.517)" fill="#fff"/>
    <path id="パス_2044" data-name="パス 2044" d="M814.17,97.369l1.464-2.471a5.991,5.991,0,0,1,5.014,6.981,6.179,6.179,0,0,1-7.771,4.606,6.948,6.948,0,0,1-4.715-6.764c0-2.455,1.42-5.006,3.1-7.367,5.551-7.814,4.067-9.287,3.87-9.782l.775-1.258c2.072,2.708.023,6.385-2.1,9.637-2.319,3.56-3.648,5.568-3.9,7.717a4.979,4.979,0,0,0,3.5,5.5,3.5,3.5,0,1,0,.763-6.8" transform="translate(-720.728 -72.517)" fill="#fff"/>
  </g>
</svg>
