<svg xmlns="http://www.w3.org/2000/svg" width="16.636" height="16.637" viewBox="0 0 16.636 16.637"><defs><style>.a{fill:#fff;}</style></defs><path class="a" d="M8.318,0C6.058,0,5.776.01,4.889.05A6.134,6.134,0,0,0,2.87.437,4.073,4.073,0,0,0,1.4,1.4,4.059,4.059,0,0,0,.437,2.87,6.116,6.116,0,0,0,.05,4.889C.008,5.776,0,6.058,0,8.318s.01,2.542.05,3.429a6.137,6.137,0,0,0,.387,2.019A4.079,4.079,0,0,0,1.4,15.24,4.068,4.068,0,0,0,2.87,16.2a6.141,6.141,0,0,0,2.019.387c.887.042,1.169.05,3.429.05s2.542-.01,3.429-.05a6.155,6.155,0,0,0,2.019-.387A4.251,4.251,0,0,0,16.2,13.766a6.137,6.137,0,0,0,.387-2.019c.042-.887.05-1.169.05-3.429s-.01-2.542-.05-3.429A6.152,6.152,0,0,0,16.2,2.87,4.083,4.083,0,0,0,15.24,1.4,4.053,4.053,0,0,0,13.767.437,6.119,6.119,0,0,0,11.747.05C10.86.008,10.578,0,8.318,0Zm0,1.5c2.22,0,2.485.011,3.362.049a4.583,4.583,0,0,1,1.544.288A2.737,2.737,0,0,1,14.8,3.413a4.593,4.593,0,0,1,.286,1.544c.04.878.049,1.141.049,3.362s-.01,2.485-.051,3.362a4.681,4.681,0,0,1-.292,1.544,2.641,2.641,0,0,1-.623.958,2.6,2.6,0,0,1-.957.621,4.626,4.626,0,0,1-1.549.286c-.883.04-1.143.049-3.368.049s-2.486-.01-3.368-.051a4.717,4.717,0,0,1-1.55-.292,2.576,2.576,0,0,1-.956-.623,2.526,2.526,0,0,1-.624-.957,4.721,4.721,0,0,1-.291-1.549c-.031-.873-.042-1.143-.042-3.358s.011-2.486.042-3.37A4.715,4.715,0,0,1,1.8,3.39a2.466,2.466,0,0,1,.624-.957,2.46,2.46,0,0,1,.956-.622,4.6,4.6,0,0,1,1.54-.292c.884-.031,1.144-.042,3.368-.042l.031.021Zm0,2.55a4.271,4.271,0,1,0,4.271,4.271A4.271,4.271,0,0,0,8.318,4.047Zm0,7.044a2.773,2.773,0,1,1,2.773-2.773A2.772,2.772,0,0,1,8.318,11.091Zm5.439-7.213a1,1,0,1,1-1-1A1,1,0,0,1,13.757,3.878Z"/></svg>