<svg xmlns="http://www.w3.org/2000/svg" xmlns:xlink="http://www.w3.org/1999/xlink" width="19.435" height="18.56" viewBox="0 0 19.435 18.56"><defs><style>.a{fill:none;}.b{clip-path:url(#a);}.c{fill:#fadb1b;}.d{fill:#f7b31d;}.e{fill:#f9ce1b;}.f{fill:#f4c90f;}.g{fill:#f6e879;}</style><clipPath id="a"><rect class="a" width="19.435" height="18.56"/></clipPath></defs><g class="b"><path class="c" d="M10.421.437l2.4,4.855a.784.784,0,0,0,.59.428l5.358.779A.783.783,0,0,1,19.2,7.835l-3.877,3.779a.783.783,0,0,0-.225.693l.915,5.336a.783.783,0,0,1-1.136.826l-4.792-2.519a.782.782,0,0,0-.729,0L4.562,18.469a.783.783,0,0,1-1.136-.826l.915-5.336a.783.783,0,0,0-.225-.693L.239,7.835A.783.783,0,0,1,.673,6.5L6.031,5.72a.783.783,0,0,0,.59-.428L9.016.437a.783.783,0,0,1,1.4,0" transform="translate(-0.001 0)"/><path class="d" d="M25.038,51.215v6.527a.794.794,0,0,0-.365.09l-4.791,2.52a.783.783,0,0,1-1.136-.825l.915-5.337a.777.777,0,0,0,0-.26l.07-.146Z" transform="translate(-15.32 -41.884)"/><path class="e" d="M58.493,60.352,53.7,57.832a.792.792,0,0,0-.364-.09V51.215l5.308,2.569.088.061a.781.781,0,0,0-.019.345l.915,5.337a.783.783,0,0,1-1.136.825" transform="translate(-43.618 -41.884)"/><path class="c" d="M53.046,57.452c-.015-.544-.022-1.088-.033-1.632l-.019-1.632c-.007-.544-.005-1.088-.009-1.632l0-1.632a.065.065,0,0,1,.064-.065.066.066,0,0,1,.029.007l1.325.647c.442.216.883.431,1.323.652l1.319.658,1.314.67-1.34-.615-1.335-.626c-.445-.207-.888-.421-1.331-.633l-1.329-.637.093-.058,0,1.632c0,.544,0,1.088-.009,1.632l-.019,1.632c-.011.544-.018,1.088-.033,1.632" transform="translate(-43.328 -41.593)"/><path class="f" d="M9.718,34.737,4.41,37.306l-.134-.06a.749.749,0,0,0-.161-.227L.238,33.24A.783.783,0,0,1,.671,31.9l5.358-.779a.819.819,0,0,0,.189-.051l.219-.008c.066.033,3.281,3.671,3.281,3.671" transform="translate(0 -25.406)"/><path class="d" d="M58.357,37.307c-.449-.2-.895-.407-1.342-.612l-1.336-.625-1.33-.635c-.443-.213-.888-.422-1.328-.64h0a.063.063,0,0,1-.029-.085A.062.062,0,0,1,53,34.7c.551-.608,1.1-1.222,1.653-1.825l.834-.906.842-.9-.8.938-.807.93c-.536.621-1.086,1.231-1.628,1.846l-.02-.1c.444.21.884.429,1.326.644l1.324.649,1.319.66c.438.223.877.445,1.312.673" transform="translate(-43.331 -25.407)"/><path class="c" d="M24.22,37.307c.449-.2.895-.407,1.342-.612l1.336-.625,1.33-.635c.443-.213.888-.422,1.328-.64h0a.063.063,0,0,0,.029-.085.062.062,0,0,0-.01-.015c-.551-.608-1.1-1.222-1.653-1.825l-.834-.906-.842-.9.8.938.807.93c.536.621,1.086,1.231,1.628,1.846l.02-.1c-.444.21-.884.429-1.326.644l-1.323.649-1.319.66c-.438.223-.877.445-1.312.673" transform="translate(-19.807 -25.407)"/><path class="g" d="M41.891,31.067c-.527.63-1.064,1.25-1.6,1.869-.267.311-.542.616-.813.924l-.816.922a.065.065,0,0,1-.092.006l-.006-.006-.816-.922c-.271-.308-.546-.613-.813-.924l-.807-.93c-.265-.313-.534-.623-.8-.939.285.3.563.6.844.9l.834.906c.279.3.551.608.827.912l.824.914h-.1l.825-.914c.275-.3.548-.611.827-.911.555-.6,1.111-1.208,1.678-1.8" transform="translate(-28.892 -25.407)"/></g></svg>