<svg xmlns="http://www.w3.org/2000/svg" width="544.395" height="506.959" viewBox="0 0 544.395 506.959"><defs><style>.a{opacity:0.5;}.b{fill:none;stroke-linecap:square;stroke-linejoin:bevel;stroke-miterlimit:10;}.c{fill:#fff;}.d,.e{stroke:none;}.e{fill:#fff;}</style></defs><g transform="translate(-689 -899.001)"><g class="a" transform="translate(50 25.426)"><g class="b" transform="translate(638.499 872.704)"><path class="d" d="M81.441,458.989c-5.838,2.975-9.378,8.98-14.8,12.651-18.529,12.529,2.187,23.518-9.855,25.575C48.4,498.649,42.73,507.78,34.222,507.83c-13.784.082-19.494-18.157-14.858-31.138,5.477-15.344,21.066-30.832,13.721-39.3-5.055-5.821-13.239-8.89-19.4-18.6C8.36,410.419-.889,412.819.677,400.406c.414-3.289,6.1-4.377,5.768-8.98-.688-9.47,1.769-17.7,1.047-27.616-.147-2.025-1.366-4.037-.641-5.933,1.3-3.407,5.947-4.133,9.584-3.837,12.382,1.01,15.713-7.648,22.024-15.427,3.684,1.5,4.148,4.219,7.832,5.725,6.147-8.135,5.652-15.314,11.794-20.5,2.381-2.009,7.92-2.719,8.091-5.828.665-12.115-6.458-10.841-8.215-15.533-3.624-9.67-11.219-22.008-1.314-26.7,6.247-2.956,13.391.838,17.664,6.268s8.254,12.242,15.051,13.487c5.245.962,10.519-1.1,15.768-2.034,11.287-2.005,10.332,1.577,15.425,2.821,15.752,3.85,13.175-1.571,23.018-14.2,5.63-7.226,11.039-11.905,7.387-31.622-1.445-7.79-9.08-18.258-7.9-26.092,2.307-15.333,27.459-16.954,30.054-34.21,1.991-13.233-7.837-30.618-.947-42.09,1.791-2.986,4.721-5.156,6.517-8.139,1.964-3.254,2.408-7.174,2.695-10.963,1.318-17.356.224-35.119-5.493-51.56-3.85-11.081-12.226-21.222-12.226-32.954a70.519,70.519,0,0,1,10.593-36.3c8.342,1.247,15.214.395,18.637-7.316,4.8,4.824,9.819,9.418,14.674,14.186a288.98,288.98,0,0,1,49.487,64.722c11.187,19.947,26.97,33.157,42.184,50.231,13.449,15.093,35.43,21.466,43.311,33.537L353.1,165.09a30.662,30.662,0,0,0,.38,13.49,63.17,63.17,0,0,0,36.9-6.174q1.276,10.177,2.553,20.354a17.177,17.177,0,0,0,11.147-12.039c5.341,14.864,24.177,21.092,39.585,17.622s28.1-14.025,40.143-24.246q12.881-10.936,25.762-21.868c-6.1,13.318-14.17,25.9-18.3,39.957-3.441,11.709-12.1,26.225-12.1,26.225s14.3,29.122,25.613,27.844c-3.164,2.669-7.133,3.729-10.3,6.4-1.732,10.085,6.875,28.255,17.039,29.442,10.133,1.184,7.382-4.935,17.345-14.21a24.076,24.076,0,0,0,12.9-.148,14.089,14.089,0,0,1,3.032,10.382c-17.7-2.146-14.109,4.76-22.886,14.943-5.97,6.925-17.975,2.711-26.544,5.9-7.664,2.851-12.994,9.758-19.787,14.312s-17.563,5.846-21.934-1.066a10.5,10.5,0,0,0-2.434,10.56,50.007,50.007,0,0,1-41.507-5.734c-20.575,1.174-37.329,16.313-51.845,30.94-11.783,11.873-23.506,24.222-31.034,39.159s-10.406,33.049-3.914,48.464a14.171,14.171,0,0,0-13.983,9.821c-5.829-1.664-8.135-8.432-11.4-13.539-6.935-10.831-20.1-15.477-32.09-20.138a324.975,324.975,0,0,1-69.8-37.528c-4.288-3.033-8.545-6.2-13.357-8.3-13.17-5.767-27.654.093-40.123,7.25s-23.574,15.142-33.257,25.771a129.056,129.056,0,0,0-12.131-18.088c-5.022-6.419-10.229-15.092-18.821-13.97-2.321.3-4.633,1.115-6.951.793s-4.662-2.413-4.1-4.686C59.129,370.021,50.621,377.7,46.86,387.5c-1.915,4.99-2.812,12.722.567,16.863,5.56,6.819,8.56,10.072,14.344,13.858,8.547,5.593,13.518,5.949,20.388,6.7,5.082.551,7.445,1.732,10.438,5.762,4.686,6.311,7.281,12.212,13.846,16.536,10.916,7.194,10.945,10.681,18.779,10.022-3.648,11.309-1.343,11.221-10.369,17.8a10.525,10.525,0,0,1-9.056,1.232C95.271,472.858,90.65,464.767,81.441,458.989Z"/><path class="e" d="M 34.12897872924805 506.8304138183594 C 34.15690612792969 506.8304138183594 34.18662261962891 506.8303527832031 34.21583557128906 506.8301391601562 C 38.45890808105469 506.8052673339844 41.98769378662109 504.3232727050781 45.72376251220703 501.6956176757812 C 49.05269241333008 499.3542175292969 52.49504852294922 496.9331359863281 56.612548828125 496.2292175292969 C 58.22347640991211 495.9539794921875 59.22526550292969 495.5049743652344 59.5899772644043 494.8945007324219 C 60.10519409179688 494.031982421875 59.56440734863281 492.4247131347656 58.9381217956543 490.5636291503906 C 57.30890655517578 485.7217102050781 54.84676361083984 478.4044799804688 66.07554626464844 470.8119812011719 C 68.39076232910156 469.245849609375 70.41569519042969 467.1723327636719 72.37390899658203 465.1670532226562 C 74.93511962890625 462.5444030761719 77.58354949951172 459.8324279785156 80.98661804199219 458.0980529785156 L 81.97219085693359 458.1419067382812 C 85.65540313720703 460.4529113769531 88.60447692871094 463.1129760742188 91.45648193359375 465.685546875 C 95.80283355712891 469.6060485839844 99.90826416015625 473.3091430664062 106.1056213378906 475.3167724609375 C 107.0236892700195 475.6139831542969 108.052978515625 475.7710571289062 109.0822677612305 475.7710571289062 C 111.0577621459961 475.7710571289062 112.8982620239258 475.2229309082031 114.2645492553711 474.2276306152344 C 117.7391204833984 471.6957092285156 119.3950500488281 470.2368469238281 120.3745498657227 468.8449096679688 C 121.3751220703125 467.4231262207031 121.7496185302734 465.9808349609375 122.4294815063477 463.3626403808594 C 122.7832260131836 462.0004272460938 123.2081604003906 460.364013671875 123.8358688354492 458.3135070800781 C 121.6211242675781 458.3559265136719 119.9126892089844 457.999755859375 118.2556228637695 457.1404113769531 C 116.8031921386719 456.3873596191406 115.4459075927734 455.2811889648438 113.7276229858398 453.880859375 C 111.8215484619141 452.3274230957031 109.449333190918 450.3940734863281 105.8934783935547 448.05078125 C 100.9032669067383 444.7637023925781 98.1192626953125 440.5830688476562 95.17183685302734 436.156982421875 C 94.11611938476562 434.5716247558594 93.02440643310547 432.9322814941406 91.794189453125 431.2754211425781 C 90.33518981933594 429.3106994628906 89.10619354248047 428.1434936523438 87.68476104736328 427.3726196289062 C 86.31119537353516 426.6276245117188 84.62640380859375 426.1907043457031 82.05097961425781 425.9114990234375 C 81.79676055908203 425.8838500976562 81.54512023925781 425.856689453125 81.29583740234375 425.829833984375 C 74.79212188720703 425.12890625 69.65512084960938 424.5751953125 61.2236213684082 419.0580749511719 C 58.31876373291016 417.1570739746094 56.0331916809082 415.3324279785156 53.81283569335938 413.1416931152344 C 51.60697937011719 410.9654235839844 49.43747711181641 408.4112854003906 46.65219116210938 404.9957885742188 C 44.97126388549805 402.9358520507812 44.1087646484375 399.9070739746094 44.15812301635742 396.2367858886719 C 44.1977653503418 393.281494140625 44.84233474731445 389.9664916992188 45.92647933959961 387.1415710449219 C 47.64633560180664 382.6626281738281 50.48240661621094 378.2267761230469 54.5966911315918 373.5804748535156 C 58.18898010253906 369.5237731933594 62.24404907226562 365.8526306152344 66.16555023193359 362.3023376464844 L 66.23526763916016 362.2391967773438 L 67.87712097167969 363.2206420898438 C 67.73726654052734 363.7861328125 67.86140441894531 364.36083984375 68.24597930908203 364.9288330078125 C 68.84712219238281 365.8166198730469 70.011474609375 366.5187072753906 71.14347839355469 366.6758422851562 C 71.45726776123047 366.7194213867188 71.77783203125 366.7406311035156 72.12340545654297 366.7406311035156 C 73.24983215332031 366.7405700683594 74.39254760742188 366.5134887695312 75.60233306884766 366.2729797363281 C 76.32569122314453 366.1292114257812 77.07369232177734 365.9805603027344 77.82711791992188 365.8822631835938 C 78.37155151367188 365.8112182617188 78.91840362548828 365.7752075195312 79.45262145996094 365.7752075195312 C 86.65361785888672 365.7752075195312 91.46183776855469 372.1575012207031 95.70404815673828 377.78857421875 C 96.34540557861328 378.6398315429688 96.95119476318359 379.4440002441406 97.56476593017578 380.2281188964844 C 102.4104385375977 386.4228515625 105.8212814331055 391.4427185058594 109.1071395874023 397.2409973144531 C 113.5492782592773 392.4834899902344 118.3951873779297 388.1250915527344 123.8845520019531 383.9476318359375 C 129.1028289794922 379.9763488769531 134.9195556640625 376.1642150878906 141.6668395996094 372.2934875488281 C 146.8944091796875 369.2930603027344 151.5310516357422 367.0726928710938 155.8416900634766 365.5053405761719 C 161.2666168212891 363.5329284667969 166.1710510253906 362.5740661621094 170.8352661132812 362.5740661621094 C 175.0328369140625 362.5740661621094 179.0210571289062 363.388427734375 182.6889038085938 364.9944152832031 C 187.1418304443359 366.9428405761719 191.1435546875 369.7867126464844 195.0134735107422 372.5369262695312 C 195.4164733886719 372.8232727050781 195.8191986083984 373.1094970703125 196.2222595214844 373.3946228027344 C 217.7854766845703 388.6488342285156 241.1969757080078 401.2363586425781 265.8064880371094 410.8074035644531 C 266.4324035644531 411.0509033203125 267.0616149902344 411.2942810058594 267.6929931640625 411.53857421875 C 273.4478454589844 413.7648315429688 279.3985595703125 416.0669860839844 284.7599792480469 419.1181945800781 C 290.8921203613281 422.6080017089844 295.3461303710938 426.6052856445312 298.3766174316406 431.3385620117188 C 299.1410522460938 432.5329895019531 299.8594055175781 433.8260498046875 300.5541076660156 435.0765686035156 C 301.6981811523438 437.135986328125 302.8812561035156 439.265625 304.2806091308594 440.9671936035156 C 305.5517883300781 442.5128173828125 306.8519287109375 443.5400390625 308.3143920898438 444.1432495117188 C 309.2934265136719 441.5940856933594 311.0693359375 439.2872619628906 313.3951110839844 437.567626953125 C 315.7908325195312 435.7962341308594 318.6216125488281 434.7551879882812 321.4420776367188 434.5958862304688 C 320.1343994140625 431.1712036132812 319.2276916503906 427.5289306640625 318.742919921875 423.7474060058594 C 318.2220458984375 419.6845703125 318.1824035644531 415.4236450195312 318.6251831054688 411.0830688476562 C 319.4521789550781 402.9755554199219 321.9822692871094 394.5375671386719 325.9417724609375 386.6812133789062 C 333.4653930664062 371.7515563964844 345.0011901855469 359.5189208984375 357.15869140625 347.2681884765625 C 364.3510437011719 340.0207824707031 372.2127685546875 332.5041198730469 380.9617004394531 326.6274108886719 C 390.7662658691406 320.0416259765625 400.1524658203125 316.5764770507812 409.6567077636719 316.0340576171875 L 410.2587585449219 316.1940002441406 C 414.1268920898438 318.7087097167969 418.3956909179688 320.6525573730469 422.9464721679688 321.9716186523438 C 427.4405517578125 323.2742004394531 432.0927734375 323.9345703125 436.7738342285156 323.9344177246094 C 441.3064575195312 323.9342956542969 445.7467041015625 323.3149719238281 449.9873046875 322.0927124023438 C 449.1094665527344 318.3682861328125 450.2367248535156 314.2249755859375 452.9456787109375 311.5012817382812 L 454.4998474121094 311.6719055175781 C 455.4281921386719 313.1397094726562 456.7186889648438 314.2583312988281 458.3355407714844 314.9968566894531 C 459.8506774902344 315.6889038085938 461.6197509765625 316.0397644042969 463.5936889648438 316.0397033691406 C 467.3960571289062 316.03955078125 471.672119140625 314.6947021484375 475.0321350097656 312.4421997070312 C 477.5158996582031 310.7771301269531 479.8597717285156 308.7389221191406 482.1263427734375 306.7677612304688 C 486.0238342285156 303.37841796875 490.0540466308594 299.8737182617188 495.0275573730469 298.0235595703125 C 498.6016235351562 296.6946411132812 502.6888427734375 296.5977783203125 506.6414794921875 296.5041198730469 C 512.4125366210938 296.3673400878906 517.8636474609375 296.2381896972656 521.1629028320312 292.4108581542969 C 523.5953369140625 289.5887145996094 525.0387573242188 287.0497741699219 526.3121948242188 284.8096923828125 C 527.6527099609375 282.4516906738281 528.8104248046875 280.415283203125 530.6759033203125 278.9797668457031 C 532.6990966796875 277.4229125976562 535.31689453125 276.7286376953125 539.1640014648438 276.7286376953125 C 540.5606689453125 276.7286376953125 542.1138916015625 276.8206481933594 543.88720703125 277.0090942382812 C 543.9331665039062 275.6430053710938 543.7568969726562 274.242919921875 543.3670043945312 272.9078369140625 C 542.9434204101562 271.4575805664062 542.2661743164062 270.0781555175781 541.3939819335938 268.8819885253906 C 539.3362426757812 269.4217529296875 537.2071533203125 269.695068359375 535.054931640625 269.695068359375 C 533.0574951171875 269.695068359375 531.076171875 269.4586486816406 529.1567993164062 268.9918823242188 C 525.7322998046875 272.2627868652344 523.9298706054688 275.0941467285156 522.4710693359375 277.3856201171875 C 521.34130859375 279.1601257324219 520.4490356445312 280.561767578125 519.1843872070312 281.5900573730469 C 517.7779541015625 282.733642578125 516.11669921875 283.2436218261719 513.7978515625 283.2436218261719 C 513.0718994140625 283.2436218261719 512.2908325195312 283.1935729980469 511.4099731445312 283.0906372070312 C 509.4143981933594 282.8575744628906 507.4122009277344 282.0277709960938 505.458984375 280.6242065429688 C 503.6959838867188 279.3573608398438 502.0041198730469 277.6482849121094 500.4303283691406 275.5444030761719 C 497.9925537109375 272.2854919433594 495.9478454589844 268.1934204101562 494.6729125976562 264.0219116210938 C 493.371337890625 259.7633361816406 492.9552612304688 255.6664886474609 493.5013427734375 252.4859161376953 L 493.842041015625 251.8908538818359 C 495.5079040527344 250.4853515625 497.3704833984375 249.5115661621094 499.1717529296875 248.5698394775391 C 500.1380615234375 248.0646820068359 501.0753784179688 247.5746459960938 501.9696044921875 247.03076171875 C 497.4526977539062 245.8977813720703 492.2911376953125 241.1666564941406 486.5907592773438 232.9241333007812 C 481.7827758789062 225.9719848632812 478.3066101074219 218.9238433837891 478.2721252441406 218.8534240722656 L 478.3109130859375 217.9005584716797 C 478.3968505859375 217.7564849853516 486.9430541992188 203.3603515625 490.3090515136719 191.9055633544922 C 493.0890502929688 182.4406280517578 497.6924743652344 173.5333404541016 502.1443481445312 164.9193420410156 C 503.6538391113281 161.9984741210938 505.1986999511719 159.0093383789062 506.6712036132812 155.9997100830078 C 499.2648315429688 162.2862854003906 491.8591918945312 168.5724487304688 484.4528503417969 174.8604125976562 C 477.9079895019531 180.4159240722656 471.9679870605469 185.3586273193359 465.5474853515625 189.5876312255859 C 458.0137023925781 194.5498504638672 450.9270629882812 197.7332000732422 443.8825378417969 199.3194122314453 C 441.0486145019531 199.9575653076172 438.085205078125 200.2811279296875 435.0746154785156 200.2811279296875 C 431.6765441894531 200.2811279296875 428.3014831542969 199.8717803955078 425.0433349609375 199.0644226074219 C 421.7122497558594 198.2389831542969 418.5966186523438 197.0196380615234 415.7828979492188 195.4402008056641 C 410.5295715332031 192.4913482666016 406.5661315917969 188.4165344238281 404.1905822753906 183.5548553466797 C 403.383056640625 185.470947265625 402.2243347167969 187.2648315429688 400.7680358886719 188.8377075195312 C 398.669677734375 191.1040649414062 396.0668334960938 192.7893524169922 393.240966796875 193.7114105224609 L 391.9385375976562 192.8854217529297 C 391.144775390625 186.5647888183594 390.3523254394531 180.2440185546875 389.5600280761719 173.9234619140625 C 381.0183410644531 178.0060729980469 371.5000915527344 180.1585540771484 361.9401245117188 180.1585540771484 C 359.0617065429688 180.1585540771484 356.1701354980469 179.9610595703125 353.3456115722656 179.5715637207031 L 352.5135498046875 178.8291320800781 C 351.4395751953125 174.6376647949219 351.2429504394531 170.2008361816406 351.9353942871094 165.9306945800781 C 350.4440307617188 165.7128295898438 348.9529113769531 165.4947357177734 347.4619140625 165.2766265869141 C 345.7751159667969 165.0298461914062 344.0885620117188 164.7831268310547 342.4019775390625 164.5368499755859 L 341.7091064453125 164.0940551757812 C 339.9524841308594 161.403564453125 337.3792724609375 158.8433532714844 333.6111145019531 156.0369110107422 C 330.2088317871094 153.5029144287109 326.2831115722656 151.1036987304688 322.1268310546875 148.5635681152344 C 318.0655517578125 146.0814208984375 313.865966796875 143.5147705078125 309.8208312988281 140.6156311035156 C 305.2117004394531 137.3121337890625 301.5049133300781 134.0607757568359 298.4886779785156 130.67578125 C 294.2574157714844 125.9269866943359 289.9386291503906 121.4329147338867 285.7620544433594 117.0867767333984 C 274.7293395996094 105.6062774658203 264.3084716796875 94.76248931884766 256.1794738769531 80.26841735839844 C 249.5689849853516 68.48127746582031 242.041259765625 57.04327392578125 233.8055572509766 46.27213287353516 C 225.5698394775391 35.50091934204102 216.5053405761719 25.23884582519531 206.8639831542969 15.77084636688232 C 204.79248046875 13.73634624481201 202.6521911621094 11.69756031036377 200.5823364257812 9.725917816162109 C 198.1365051269531 7.396170616149902 195.6172027587891 4.996335983276367 193.1697387695312 2.564306735992432 C 192.6235504150391 3.565111637115479 192.0002899169922 4.461906909942627 191.3081970214844 5.241489410400391 C 190.3656158447266 6.303203582763672 189.2646942138672 7.182346343994141 188.0360565185547 7.854560852050781 C 185.8194122314453 9.067275047302246 183.1437683105469 9.656774520874023 179.8563385009766 9.656774520874023 C 178.3264312744141 9.656774520874023 176.6557312011719 9.53040885925293 174.7671356201172 9.27117919921875 C 171.744140625 14.3288516998291 169.3471069335938 19.69144058227539 167.6388397216797 25.22027587890625 C 165.6627655029297 31.61591720581055 164.6607666015625 38.09756088256836 164.6607666015625 44.48506164550781 C 164.6607666015625 47.77134704589844 165.3583374023438 51.24820327758789 166.7932586669922 55.11441802978516 C 168.0909118652344 58.61084747314453 169.8660430908203 62.11455917358398 171.5826873779297 65.50291442871094 C 173.4846954345703 69.25713348388672 175.4514770507812 73.13912963867188 176.8311920166016 77.11034393310547 C 179.5669097900391 84.97834777832031 181.3956146240234 93.61520385742188 182.2665557861328 102.781135559082 C 183.0434112548828 110.957633972168 183.0804748535156 119.8039855957031 182.3766937255859 129.0743408203125 C 182.0830535888672 132.9536285400391 181.6221923828125 137.0297088623047 179.5414123535156 140.4777679443359 C 178.5935516357422 142.0522003173828 177.3609008789062 143.3972015380859 176.1688385009766 144.6979827880859 C 174.9868316650391 145.9877777099609 173.8704071044922 147.2060546875 173.0246887207031 148.6162109375 C 172.1149139404297 150.1311340332031 171.4876861572266 151.7896270751953 171.1071166992188 153.6863403320312 C 170.7630462646484 155.4017028808594 170.6293334960938 157.2761383056641 170.6984710693359 159.4167785644531 C 170.8290557861328 163.4579925537109 171.6857604980469 167.8675537109375 172.5143280029297 172.1319122314453 C 173.7136993408203 178.3047790527344 174.9538421630859 184.6878509521484 174.1034088134766 190.3402709960938 C 173.4718322753906 194.5401306152344 171.5105438232422 198.2290649414062 168.1074066162109 201.6177673339844 C 165.1508331298828 204.5618438720703 161.4706878662109 206.9469146728516 157.9116973876953 209.2534942626953 C 151.3238372802734 213.5230560302734 145.1013336181641 217.5557708740234 144.0490570068359 224.5505676269531 C 143.3796234130859 228.9979858398438 145.8217620849609 234.5479888916016 148.1835479736328 239.9152679443359 C 149.8127593994141 243.6177062988281 151.3515472412109 247.1147766113281 151.9444732666016 250.3113403320312 C 153.5142669677734 258.7869873046875 153.5527648925781 265.0941467285156 152.0656280517578 270.1604309082031 C 150.7131195068359 274.7677612304688 148.2709045410156 277.8244323730469 145.6852569580078 281.0604858398438 C 145.2526245117188 281.6019287109375 144.8053283691406 282.1617736816406 144.3627624511719 282.7297668457031 C 141.9613342285156 285.8111267089844 140.2831878662109 288.4989929199219 138.9348297119141 290.65869140625 C 137.4039764404297 293.1106262207031 136.1948394775391 295.0473327636719 134.6760559082031 296.3912658691406 C 133.0011138916016 297.8732604980469 131.0700531005859 298.5341186523438 128.41455078125 298.5341186523438 C 126.3714752197266 298.5341186523438 123.7988357543945 298.1379089355469 120.3185501098633 297.2874145507812 C 118.5529098510742 296.8562622070312 117.4264068603516 296.1542053222656 116.4325485229492 295.5346984863281 C 115.0233383178711 294.6564025878906 113.806266784668 293.8978576660156 110.8126907348633 293.8978576660156 C 109.3116912841797 293.8978576660156 107.5103378295898 294.0882873535156 105.3056182861328 294.47998046875 C 103.9075469970703 294.7283325195312 102.4698333740234 295.0674743652344 101.0794067382812 295.3954162597656 C 98.19469451904297 296.0757751464844 95.21176147460938 296.7793579101562 92.22248077392578 296.7793579101562 C 91.15240478515625 296.7793579101562 90.15798187255859 296.6923522949219 89.18247985839844 296.5134887695312 C 86.42926025390625 296.0092163085938 83.874267578125 294.6166381835938 81.37155151367188 292.25634765625 C 79.21704864501953 290.2244873046875 77.35340881347656 287.7332763671875 75.55119323730469 285.3241271972656 C 74.88761901855469 284.4369812011719 74.20140838623047 283.5197143554688 73.52540588378906 282.6610717773438 C 71.93497467041016 280.64013671875 69.99211883544922 278.9281921386719 67.90705108642578 277.7104187011719 C 65.70255279541016 276.4229125976562 63.40633392333984 275.742431640625 61.26654815673828 275.742431640625 C 59.79854965209961 275.742431640625 58.38826370239258 276.0574951171875 57.07526397705078 276.6787719726562 C 55.31133651733398 277.5141296386719 54.12297821044922 278.6144104003906 53.44240570068359 280.0426330566406 C 52.82962036132812 281.3284912109375 52.62704849243164 282.87841796875 52.8231201171875 284.7809143066406 C 53.20626449584961 288.4988403320312 55.0567626953125 292.8675537109375 56.84640502929688 297.0924987792969 C 57.58811950683594 298.8434753417969 58.28869247436523 300.4973449707031 58.89812088012695 302.1232604980469 C 59.39455032348633 303.4486999511719 60.46797943115234 304.2423400878906 61.71090698242188 305.1611938476562 C 64.35369110107422 307.1151428222656 67.64283752441406 309.5467834472656 67.17526245117188 318.061767578125 C 67.03233337402344 320.6634826660156 64.30404663085938 321.8569946289062 61.89690780639648 322.9100646972656 C 60.70797729492188 323.4301452636719 59.47862243652344 323.9679870605469 58.73112106323242 324.5985717773438 C 55.58304977416992 327.2587890625 54.26983642578125 330.5054931640625 52.74926376342773 334.2647705078125 C 51.44940567016602 337.4785461425781 49.97611999511719 341.1211242675781 47.08926391601562 344.9415588378906 L 45.91297912597656 345.2643432617188 C 43.88090515136719 344.4335632324219 42.75333404541016 343.2865600585938 41.66297912597656 342.1772766113281 C 40.81356430053711 341.3132629394531 40.00444793701172 340.4901733398438 38.75338363647461 339.8479919433594 C 37.79316329956055 341.0661315917969 36.89175796508789 342.3080749511719 36.01583480834961 343.5148315429688 C 31.68369293212891 349.4835510253906 27.59176445007324 355.1212768554688 18.35740661621094 355.1212768554688 C 17.71176338195801 355.1212768554688 17.03769302368164 355.0929870605469 16.35404968261719 355.0372619628906 C 15.89126396179199 354.9995727539062 15.42354965209961 354.9804992675781 14.96390724182129 354.9804992675781 C 13.17919254302979 354.9804992675781 8.907050132751465 355.2975463867188 7.785049915313721 358.234619140625 C 7.436049938201904 359.1472778320312 7.70876407623291 360.1812133789062 8.024406433105469 361.37841796875 C 8.223834991455078 362.1344299316406 8.429978370666504 362.9161987304688 8.489406585693359 363.7374877929688 C 8.860621452331543 368.8387145996094 8.403335571289062 373.5164184570312 7.961121082305908 378.0400695800781 C 7.522764205932617 382.5237121582031 7.108764171600342 386.7586975097656 7.44240665435791 391.3530578613281 C 7.667835235595703 394.4507141113281 5.603692531585693 396.2196350097656 3.945121049880981 397.6410522460938 C 2.794835329055786 398.6268615722656 1.801406860351562 399.4781188964844 1.668906807899475 400.5309753417969 C 0.7780497074127197 407.5934753417969 3.494263887405396 409.30078125 7.253621101379395 411.6636962890625 C 9.657764434814453 413.1748352050781 12.38276386260986 414.8876342773438 14.5264778137207 418.2635498046875 C 18.21612167358398 424.0737609863281 22.74426460266113 427.5155639648438 26.73940658569336 430.5522155761719 C 29.35326385498047 432.5390014648438 31.82219314575195 434.4156188964844 33.83976364135742 436.7392883300781 C 35.12504959106445 438.2204284667969 35.84819412231445 439.9892883300781 35.98919296264648 441.9967651367188 C 36.11297988891602 443.7590637207031 35.80447769165039 445.7195739746094 35.04619216918945 447.9904174804688 C 33.67498016357422 452.0966186523438 31.02176475524902 456.6395568847656 28.21283531188965 461.44921875 C 25.2454776763916 466.5299987792969 22.17719268798828 471.7837829589844 20.30540657043457 477.0280456542969 C 17.52412033081055 484.8162841796875 18.62112045288086 494.5681457519531 22.97312164306641 500.7426452636719 C 24.93090629577637 503.520263671875 28.45547866821289 506.8311462402344 34.12883377075195 506.8304138183594 L 34.12897872924805 506.8304138183594 M 34.12898254394531 507.8304138183594 C 20.41103744506836 507.8321533203125 14.73795032501221 489.6446228027344 19.36362075805664 476.6917724609375 C 24.84040641784668 461.3472900390625 40.42969131469727 445.8594055175781 33.08447647094727 437.3946228027344 C 28.02976417541504 431.5732116699219 19.84526443481445 428.504638671875 13.68233585357666 418.7996215820312 C 8.360263824462891 410.4185485839844 -0.8889502882957458 412.8186950683594 0.6767640113830566 400.4058532714844 C 1.090763926506042 397.1166381835938 6.780121326446533 396.0292663574219 6.44504976272583 391.4256286621094 C 5.757264137268066 381.9556884765625 8.213692665100098 373.7261962890625 7.492049694061279 363.81005859375 C 7.345478057861328 361.7852783203125 6.126121044158936 359.7733459472656 6.850978374481201 357.8775024414062 C 8.152478218078613 354.4706115722656 12.79805278778076 353.7441101074219 16.4351921081543 354.0405578613281 C 28.81744194030762 355.0508728027344 32.1485481262207 346.3924865722656 38.45969390869141 338.6139221191406 C 42.14361953735352 340.118408203125 42.60747909545898 342.8326416015625 46.29140853881836 344.3387145996094 C 52.43819427490234 336.2041320800781 51.94369125366211 329.0248413085938 58.085693359375 323.8347778320312 C 60.46640777587891 321.8262023925781 66.0059814453125 321.1158447265625 66.17676544189453 318.0069274902344 C 66.84197998046875 305.8921203613281 59.71905136108398 307.166259765625 57.96162033081055 302.4739990234375 C 54.33733367919922 292.8043518066406 46.74240493774414 280.4656372070312 56.64726257324219 275.7749938964844 C 62.89390563964844 272.8192443847656 70.03783416748047 276.612548828125 74.31126403808594 282.0426330566406 C 78.58469390869141 287.4709777832031 82.56497955322266 294.2846984863281 89.36261749267578 295.5298461914062 C 94.60736846923828 296.4914855957031 99.88112640380859 294.4280395507812 105.1306915283203 293.4954223632812 C 116.4175262451172 291.4898681640625 115.4623947143555 295.0724182128906 120.5557632446289 296.31591796875 C 136.3078460693359 300.1658325195312 133.7304992675781 294.7454223632812 143.5740509033203 282.1150512695312 C 149.2038421630859 274.8890686035156 154.6128997802734 270.209716796875 150.9611968994141 250.4934844970703 C 149.5163421630859 242.7036285400391 141.8811187744141 232.2349853515625 143.0601959228516 224.4017028808594 C 145.3669128417969 209.0684967041016 170.5195465087891 207.4480590820312 173.1145477294922 190.1915588378906 C 175.1054840087891 176.9588470458984 165.2779846191406 159.573486328125 172.1674041748047 148.1013488769531 C 173.9585571289062 145.1149139404297 176.8886260986328 142.9452056884766 178.6846923828125 139.9619903564453 C 180.6482696533203 136.7081298828125 181.0927581787109 132.7874908447266 181.3795471191406 128.9988403320312 C 182.6971893310547 111.6424865722656 181.6034088134766 93.88020324707031 175.8866882324219 77.43877410888672 C 172.0369110107422 66.35806274414062 163.6607666015625 56.21648788452148 163.6607666015625 44.48506164550781 C 163.6607666015625 30.77713203430176 168.1902618408203 18.13234710693359 174.2533416748047 8.187274932861328 C 182.5956878662109 9.434062004089355 189.4673309326172 8.5819091796875 192.8903350830078 0.870989203453064 C 197.6856994628906 5.695346355438232 202.7097625732422 10.28934669494629 207.564697265625 15.05734634399414 C 227.0054779052734 34.1485595703125 243.7223358154297 56.01191711425781 257.0516967773438 79.77927398681641 C 268.2386779785156 99.72577667236328 284.0213317871094 112.9359893798828 299.2353210449219 130.0104827880859 C 312.6838989257812 145.1036376953125 334.6649169921875 151.4759826660156 342.5464782714844 163.5473480224609 C 346.0645446777344 164.0611267089844 349.5825500488281 164.5766296386719 353.1021118164062 165.0904846191406 C 352.2242736816406 169.5411376953125 352.3563232421875 174.1866302490234 353.4822692871094 178.5809173583984 C 366.0254821777344 180.3108978271484 379.0810852050781 178.1266326904297 390.377685546875 172.4067077636719 C 391.2281799316406 179.1914215087891 392.0787048339844 185.9760589599609 392.9307556152344 192.7607727050781 C 398.36083984375 190.9889221191406 402.7276916503906 186.2724914550781 404.0775451660156 180.7216339111328 C 409.4189147949219 195.5861511230469 428.2541809082031 201.8135681152344 443.6629028320312 198.3438415527344 C 459.0718383789062 194.8741302490234 471.7650451660156 184.3185577392578 483.8056945800781 174.0980682373047 C 492.3929138183594 166.8075561523438 500.9800415039062 159.5187072753906 509.5672607421875 152.2298431396484 C 503.4671325683594 165.5479125976562 495.39697265625 178.1314849853516 491.2685546875 192.1873474121094 C 487.8278503417969 203.8962707519531 479.1697692871094 218.4127807617188 479.1697692871094 218.4127807617188 C 479.1697692871094 218.4127807617188 492.8587646484375 246.2978820800781 504.0505981445312 246.2978820800781 C 504.2963256835938 246.2978820800781 504.5400390625 246.2845001220703 504.783203125 246.2570648193359 C 501.6195373535156 248.9261322021484 497.6504821777344 249.9860534667969 494.4869079589844 252.6551361083984 C 492.7553405761719 262.7404174804688 501.3618469238281 280.9102172851562 511.5259704589844 282.097412109375 C 521.6598510742188 283.2811584472656 518.9082641601562 277.1619262695312 528.8710327148438 267.8869323730469 C 533.078369140625 269.0127868652344 537.593505859375 268.9612731933594 541.775146484375 267.7387084960938 C 544.1124267578125 270.6107788085938 545.23193359375 274.4428405761719 544.8067016601562 278.1202697753906 C 527.1050415039062 275.9747009277344 530.6976318359375 282.8802185058594 521.92041015625 293.0636901855469 C 515.950927734375 299.9885559082031 503.9454650878906 295.7746276855469 495.3760375976562 298.9608459472656 C 487.7119140625 301.8119201660156 482.3817749023438 308.7190551757812 475.5889892578125 313.2728576660156 C 468.7962951660156 317.8265686035156 458.0264587402344 319.118408203125 453.6546936035156 312.2064819335938 C 450.97119140625 314.9045715332031 449.9885559082031 319.1667175292969 451.2208251953125 322.766845703125 C 437.4468383789062 327.0564270019531 421.8076171875 324.8947143554688 409.7136840820312 317.0324096679688 C 389.1389770507812 318.2066955566406 372.3850402832031 333.3450012207031 357.8684692382812 347.9726257324219 C 346.0854797363281 359.8459167480469 334.3621215820312 372.1942749023438 326.8347778320312 387.1311950683594 C 319.305908203125 402.0697631835938 316.4290466308594 420.1800537109375 322.9205627441406 435.5954284667969 C 316.7851867675781 435.2359924316406 310.6816711425781 439.5225524902344 308.9371948242188 445.4164123535156 C 303.1076965332031 443.7525024414062 300.8026123046875 436.9839172363281 297.5343322753906 431.8776245117188 C 290.5998229980469 421.046630859375 277.4299926757812 416.401123046875 265.4439697265625 411.7394104003906 C 240.7632598876953 402.140625 217.2649841308594 389.5055541992188 195.6447601318359 374.2109985351562 C 191.3568420410156 371.1779174804688 187.0994720458984 368.0158386230469 182.2880554199219 365.9105529785156 C 169.1181640625 360.1439208984375 154.6338500976562 366.0039978027344 142.1646270751953 373.1607666015625 C 129.6921997070312 380.31591796875 118.5905532836914 388.3022766113281 108.9080505371094 398.9319152832031 C 105.3288345336914 392.4677734375 101.8285522460938 387.302001953125 96.77712249755859 380.8442687988281 C 91.75462341308594 374.4252014160156 86.54839324951172 365.7526550292969 77.95648193359375 366.8738403320312 C 75.63533020019531 367.1766052246094 73.32384490966797 367.988525390625 71.00590515136719 367.6663513183594 C 68.68476104736328 367.3441467285156 66.34426116943359 365.2533569335938 66.90641021728516 362.9805603027344 C 59.12947845458984 370.0212707519531 50.62126541137695 377.704833984375 46.86005020141602 387.5000610351562 C 44.94476318359375 392.4904174804688 44.04755020141602 400.2221984863281 47.42697906494141 404.3635559082031 C 52.98748016357422 411.18212890625 55.98683547973633 414.4359130859375 61.77119445800781 418.2212829589844 C 70.31812286376953 423.8139953613281 75.28904724121094 424.1699829101562 82.15911865234375 424.9173583984375 C 87.24119567871094 425.46826171875 89.60419464111328 426.6490478515625 92.5970458984375 430.67919921875 C 97.28290557861328 436.9904174804688 99.87790679931641 442.8907775878906 106.4435501098633 447.2156982421875 C 117.3599090576172 454.4094848632812 117.3889465332031 457.8967895507812 125.2221908569336 457.2381286621094 C 121.5737609863281 468.5475463867188 123.8788375854492 468.4589233398438 114.8534774780273 475.0358581542969 C 112.3744888305664 476.8415222167969 108.7131271362305 477.2120361328125 105.7976226806641 476.2681274414062 C 95.27098083496094 472.8580627441406 90.64962005615234 464.7669982910156 81.44068908691406 458.9889831542969 C 75.60311889648438 461.9642028808594 72.0626220703125 467.9692687988281 66.63583374023438 471.6402893066406 C 48.10676574707031 484.1690673828125 68.82326507568359 495.1579284667969 56.78090667724609 497.2149047851562 C 48.39512252807617 498.6485595703125 42.72990798950195 507.7802124023438 34.2216911315918 507.8301391601562 C 34.19140625 507.830322265625 34.1591911315918 507.8304138183594 34.12898254394531 507.8304138183594 Z"/></g></g><g transform="translate(-1544 850.945)"><path class="c" d="M701.5,68.262l-5.171,7.963-8.4-13.832h-1.6l8.811,15.961v14.9h2.387V78.491l5.536-10.228Z" transform="translate(1887.035 232.46)"/><path class="c" d="M656.5,337.109c-2.591-.244-4.094-.906-5.117-3.841a.161.161,0,0,0-.114-.1.167.167,0,0,0-.038,0,.16.16,0,0,0-.11.044,10.519,10.519,0,0,1-7.236,3.123c-.411,0-.746-.027-.968-.045-.127-.01-.219-.018-.286-.018a.238.238,0,0,0-.223.1h0a.172.172,0,0,0-.005.153,4.414,4.414,0,0,0,2.8.69,12.063,12.063,0,0,0,5.726-1.66l.117.131a4.653,4.653,0,0,0,3.824,1.942,7.876,7.876,0,0,0,1.647-.192.161.161,0,0,0-.019-.318" transform="translate(1925.455 -4.221)"/><path class="c" d="M788.651,336.362h0a.238.238,0,0,0-.223-.1c-.067,0-.159.007-.286.018-.222.018-.557.045-.968.045a10.519,10.519,0,0,1-7.236-3.123.161.161,0,0,0-.111-.044.157.157,0,0,0-.038,0,.161.161,0,0,0-.114.1c-1.023,2.936-2.526,3.6-5.117,3.841a.161.161,0,0,0-.019.317,7.864,7.864,0,0,0,1.647.192,4.653,4.653,0,0,0,3.824-1.942l.117-.131a12.065,12.065,0,0,0,5.726,1.66,4.415,4.415,0,0,0,2.8-.69.172.172,0,0,0-.005-.153" transform="translate(1810.049 -4.221)"/><path class="c" d="M745.287,4.049h0a.121.121,0,0,0-.01-.045c-.055-.153-.372-.282-.8-.474a6.94,6.94,0,0,1-.764-.4,4.453,4.453,0,0,1-.388-.276,3.047,3.047,0,0,1-.345-.335,2.841,2.841,0,0,1-.474-.81,8.749,8.749,0,0,1-.267-.839c-.142-.519-.283-.875-.456-.872-.085,0-.165.086-.24.241a4,4,0,0,0-.212.635,8.353,8.353,0,0,1-.26.84,2.781,2.781,0,0,1-.472.808,3.085,3.085,0,0,1-.345.339,4.108,4.108,0,0,1-.384.277,6.5,6.5,0,0,1-.761.395c-.432.192-.755.321-.8.478a.115.115,0,0,0-.006.038h0a.116.116,0,0,0,.006.038c.047.156.37.286.8.478a6.5,6.5,0,0,1,.761.395,4.108,4.108,0,0,1,.384.277,3.085,3.085,0,0,1,.345.339,2.781,2.781,0,0,1,.472.808,8.353,8.353,0,0,1,.26.84,4,4,0,0,0,.212.635c.074.154.155.241.24.241.173,0,.314-.353.456-.872a8.749,8.749,0,0,1,.267-.839,2.839,2.839,0,0,1,.474-.81,3.047,3.047,0,0,1,.345-.335,4.426,4.426,0,0,1,.388-.276,6.94,6.94,0,0,1,.764-.4c.424-.192.74-.321.8-.474a.12.12,0,0,0,.01-.045h0" transform="translate(1841.611 287.002)"/><path class="c" d="M613.607,99.995l-1.7-2.874a6.97,6.97,0,0,0-5.834,8.123,7.19,7.19,0,0,0,9.041,5.359,8.085,8.085,0,0,0,5.486-7.87c0-2.857-1.652-5.824-3.6-8.571-6.459-9.091-4.732-10.806-4.5-11.381l-.9-1.464c-2.411,3.151-.027,7.43,2.439,11.214,2.7,4.142,4.245,6.479,4.536,8.979a5.794,5.794,0,0,1-4.069,6.4,4.072,4.072,0,1,1-.887-7.908" transform="translate(1957.297 215.921)"/><path class="c" d="M815.152,99.995l1.7-2.874a6.97,6.97,0,0,1,5.834,8.123,7.189,7.189,0,0,1-9.041,5.359,8.085,8.085,0,0,1-5.486-7.87c0-2.857,1.652-5.824,3.6-8.571,6.459-9.091,4.732-10.806,4.5-11.381l.9-1.464c2.411,3.151.027,7.43-2.439,11.214-2.7,4.142-4.245,6.479-4.536,8.979a5.794,5.794,0,0,0,4.069,6.4,4.072,4.072,0,1,0,.887-7.908" transform="translate(1780.548 215.921)"/></g></g></svg>